<svg width="203" height="22" viewBox="0 0 203 22" fill="none" xmlns="http://www.w3.org/2000/svg">
<path d="M1.448 17C1.288 17 1.152 16.952 1.04 16.856C0.928 16.744 0.872 16.6 0.872 16.424V0.8C0.872 0.623999 0.928 0.479999 1.04 0.368C1.152 0.255999 1.288 0.199999 1.448 0.199999H3.632C3.808 0.199999 3.944 0.255999 4.04 0.368C4.152 0.479999 4.208 0.623999 4.208 0.8V6.992H11.288V0.8C11.288 0.623999 11.344 0.479999 11.456 0.368C11.568 0.255999 11.704 0.199999 11.864 0.199999H14.024C14.2 0.199999 14.344 0.255999 14.456 0.368C14.568 0.479999 14.624 0.623999 14.624 0.8V16.424C14.624 16.584 14.568 16.72 14.456 16.832C14.344 16.944 14.2 17 14.024 17H11.864C11.704 17 11.568 16.944 11.456 16.832C11.344 16.72 11.288 16.584 11.288 16.424V9.992H4.208V16.424C4.208 16.584 4.152 16.72 4.04 16.832C3.944 16.944 3.808 17 3.632 17H1.448ZM21.7158 17.24C20.8838 17.24 20.1318 17.08 19.4598 16.76C18.7878 16.424 18.2518 15.984 17.8518 15.44C17.4678 14.88 17.2758 14.256 17.2758 13.568C17.2758 12.448 17.7238 11.56 18.6198 10.904C19.5318 10.232 20.7318 9.784 22.2198 9.56L25.5078 9.08V8.576C25.5078 7.904 25.3398 7.384 25.0038 7.016C24.6678 6.648 24.0918 6.464 23.2758 6.464C22.6998 6.464 22.2278 6.584 21.8598 6.824C21.5078 7.048 21.2438 7.352 21.0678 7.736C20.9398 7.944 20.7558 8.048 20.5158 8.048H18.6198C18.4438 8.048 18.3078 8 18.2118 7.904C18.1318 7.808 18.0918 7.68 18.0918 7.52C18.1078 7.264 18.2118 6.952 18.4038 6.584C18.5958 6.216 18.8998 5.864 19.3158 5.528C19.7318 5.176 20.2678 4.88 20.9238 4.64C21.5798 4.4 22.3718 4.28 23.2998 4.28C24.3078 4.28 25.1558 4.408 25.8438 4.664C26.5478 4.904 27.1078 5.232 27.5238 5.648C27.9398 6.064 28.2438 6.552 28.4358 7.112C28.6278 7.672 28.7238 8.264 28.7238 8.888V16.424C28.7238 16.584 28.6678 16.72 28.5558 16.832C28.4438 16.944 28.3078 17 28.1478 17H26.2038C26.0278 17 25.8838 16.944 25.7718 16.832C25.6758 16.72 25.6278 16.584 25.6278 16.424V15.488C25.4198 15.792 25.1398 16.08 24.7878 16.352C24.4358 16.608 24.0038 16.824 23.4918 17C22.9958 17.16 22.4038 17.24 21.7158 17.24ZM22.5318 14.96C23.0918 14.96 23.5958 14.84 24.0438 14.6C24.5078 14.36 24.8678 13.992 25.1238 13.496C25.3958 12.984 25.5318 12.344 25.5318 11.576V11.072L23.1318 11.456C22.1878 11.6 21.4838 11.832 21.0198 12.152C20.5558 12.472 20.3238 12.864 20.3238 13.328C20.3238 13.68 20.4278 13.984 20.6358 14.24C20.8598 14.48 21.1398 14.664 21.4758 14.792C21.8118 14.904 22.1638 14.96 22.5318 14.96ZM32.4028 21.56C32.2428 21.56 32.1068 21.504 31.9948 21.392C31.8828 21.28 31.8268 21.144 31.8268 20.984V5.096C31.8268 4.936 31.8828 4.8 31.9948 4.688C32.1068 4.576 32.2428 4.52 32.4028 4.52H34.2988C34.4748 4.52 34.6108 4.576 34.7068 4.688C34.8188 4.8 34.8748 4.936 34.8748 5.096V6.056C35.2588 5.544 35.7628 5.12 36.3867 4.784C37.0108 4.448 37.7868 4.28 38.7148 4.28C39.5628 4.28 40.2988 4.416 40.9228 4.688C41.5468 4.96 42.0668 5.352 42.4828 5.864C42.8988 6.36 43.2188 6.952 43.4427 7.64C43.6667 8.328 43.7948 9.088 43.8268 9.92C43.8428 10.192 43.8508 10.472 43.8508 10.76C43.8508 11.048 43.8428 11.336 43.8268 11.624C43.8108 12.424 43.6908 13.168 43.4668 13.856C43.2428 14.528 42.9148 15.12 42.4828 15.632C42.0668 16.128 41.5468 16.52 40.9228 16.808C40.2988 17.096 39.5628 17.24 38.7148 17.24C37.8508 17.24 37.1148 17.088 36.5068 16.784C35.8988 16.464 35.4028 16.048 35.0188 15.536V20.984C35.0188 21.144 34.9628 21.28 34.8508 21.392C34.7548 21.504 34.6188 21.56 34.4428 21.56H32.4028ZM37.8268 14.672C38.5148 14.672 39.0508 14.528 39.4348 14.24C39.8188 13.936 40.0908 13.544 40.2508 13.064C40.4268 12.584 40.5308 12.056 40.5628 11.48C40.5948 11 40.5948 10.52 40.5628 10.04C40.5308 9.464 40.4268 8.936 40.2508 8.456C40.0908 7.976 39.8188 7.592 39.4348 7.304C39.0508 7 38.5148 6.848 37.8268 6.848C37.1708 6.848 36.6348 7 36.2188 7.304C35.8188 7.608 35.5228 8 35.3308 8.48C35.1548 8.944 35.0508 9.424 35.0188 9.92C35.0028 10.208 34.9948 10.512 34.9948 10.832C34.9948 11.152 35.0028 11.464 35.0188 11.768C35.0348 12.248 35.1468 12.712 35.3548 13.16C35.5628 13.592 35.8668 13.952 36.2668 14.24C36.6668 14.528 37.1868 14.672 37.8268 14.672ZM47.4329 21.56C47.2729 21.56 47.1369 21.504 47.0249 21.392C46.9129 21.296 46.8569 21.16 46.8569 20.984V19.616C46.8569 19.44 46.9129 19.296 47.0249 19.184C47.1369 19.088 47.2729 19.04 47.4329 19.04H48.1769C48.4969 19.04 48.7609 18.976 48.9689 18.848C49.1769 18.72 49.3689 18.504 49.5449 18.2C49.7209 17.912 49.9129 17.512 50.1209 17L55.1129 4.976C55.1769 4.848 55.2569 4.744 55.3529 4.664C55.4489 4.568 55.5929 4.52 55.7849 4.52H57.6089C57.7369 4.52 57.8489 4.568 57.9449 4.664C58.0569 4.76 58.1129 4.872 58.1129 5C58.1129 5.064 58.1049 5.12 58.0889 5.168C58.0889 5.216 58.0649 5.288 58.0169 5.384L53.4569 16.28C53.1849 16.968 52.8889 17.624 52.5689 18.248C52.2649 18.888 51.9209 19.456 51.5369 19.952C51.1689 20.464 50.7369 20.856 50.2409 21.128C49.7449 21.416 49.1609 21.56 48.4889 21.56H47.4329ZM50.5289 16.688L45.6569 5.384C45.5929 5.224 45.5609 5.112 45.5609 5.048C45.5769 4.904 45.6329 4.784 45.7289 4.688C45.8249 4.576 45.9449 4.52 46.0889 4.52H48.0089C48.2009 4.52 48.3369 4.568 48.4169 4.664C48.5129 4.76 48.5849 4.864 48.6329 4.976L52.3529 14.144L50.5289 16.688ZM60.8084 17C60.6484 17 60.5124 16.944 60.4004 16.832C60.2884 16.72 60.2324 16.584 60.2324 16.424V5.096C60.2324 4.936 60.2884 4.8 60.4004 4.688C60.5124 4.576 60.6484 4.52 60.8084 4.52H62.7044C62.8804 4.52 63.0164 4.576 63.1124 4.688C63.2244 4.8 63.2804 4.936 63.2804 5.096V14.456H66.8804V5.096C66.8804 4.936 66.9284 4.8 67.0244 4.688C67.1364 4.576 67.2804 4.52 67.4564 4.52H69.1844C69.3604 4.52 69.4964 4.576 69.5924 4.688C69.7044 4.8 69.7604 4.936 69.7604 5.096V14.456H73.3604V5.096C73.3604 4.936 73.4084 4.8 73.5044 4.688C73.6164 4.576 73.7604 4.52 73.9364 4.52H75.8324C75.9924 4.52 76.1284 4.576 76.2404 4.688C76.3524 4.8 76.4084 4.936 76.4084 5.096V16.424C76.4084 16.584 76.3524 16.72 76.2404 16.832C76.1284 16.944 75.9924 17 75.8324 17H60.8084ZM85.0147 17.24C83.2387 17.24 81.8307 16.728 80.7907 15.704C79.7507 14.68 79.1907 13.224 79.1107 11.336C79.0947 11.176 79.0867 10.976 79.0867 10.736C79.0867 10.48 79.0947 10.28 79.1107 10.136C79.1747 8.936 79.4467 7.896 79.9267 7.016C80.4227 6.136 81.1027 5.464 81.9667 5C82.8307 4.52 83.8467 4.28 85.0147 4.28C86.3107 4.28 87.3987 4.552 88.2787 5.096C89.1587 5.624 89.8227 6.368 90.2707 7.328C90.7187 8.272 90.9427 9.368 90.9427 10.616V11.12C90.9427 11.28 90.8867 11.416 90.7747 11.528C90.6627 11.64 90.5187 11.696 90.3427 11.696H82.3747C82.3747 11.696 82.3747 11.72 82.3747 11.768C82.3747 11.816 82.3747 11.856 82.3747 11.888C82.3907 12.448 82.4947 12.968 82.6867 13.448C82.8947 13.912 83.1907 14.288 83.5747 14.576C83.9747 14.864 84.4467 15.008 84.9907 15.008C85.4387 15.008 85.8147 14.944 86.1187 14.816C86.4227 14.672 86.6707 14.512 86.8627 14.336C87.0547 14.16 87.1907 14.016 87.2707 13.904C87.4147 13.712 87.5267 13.6 87.6067 13.568C87.7027 13.52 87.8387 13.496 88.0147 13.496H90.0787C90.2387 13.496 90.3667 13.544 90.4627 13.64C90.5747 13.736 90.6227 13.856 90.6067 14C90.5907 14.256 90.4547 14.568 90.1987 14.936C89.9587 15.304 89.6067 15.664 89.1427 16.016C88.6787 16.368 88.0947 16.664 87.3907 16.904C86.7027 17.128 85.9107 17.24 85.0147 17.24ZM82.3747 9.68H87.6787V9.608C87.6787 8.984 87.5747 8.44 87.3667 7.976C87.1587 7.512 86.8547 7.144 86.4547 6.872C86.0547 6.6 85.5747 6.464 85.0147 6.464C84.4547 6.464 83.9747 6.6 83.5747 6.872C83.1747 7.144 82.8707 7.512 82.6627 7.976C82.4707 8.44 82.3747 8.984 82.3747 9.608V9.68ZM94.0663 17C93.9063 17 93.7703 16.944 93.6583 16.832C93.5463 16.72 93.4902 16.584 93.4902 16.424V5.096C93.4902 4.936 93.5463 4.8 93.6583 4.688C93.7703 4.576 93.9063 4.52 94.0663 4.52H96.0583C96.2343 4.52 96.3703 4.576 96.4663 4.688C96.5783 4.8 96.6343 4.936 96.6343 5.096V9.392H102.058V5.096C102.058 4.936 102.114 4.8 102.226 4.688C102.338 4.576 102.474 4.52 102.634 4.52H104.626C104.786 4.52 104.922 4.576 105.034 4.688C105.146 4.8 105.202 4.936 105.202 5.096V16.424C105.202 16.584 105.146 16.72 105.034 16.832C104.922 16.944 104.786 17 104.626 17H102.634C102.474 17 102.338 16.944 102.226 16.832C102.114 16.72 102.058 16.584 102.058 16.424V11.912H96.6343V16.424C96.6343 16.584 96.5783 16.72 96.4663 16.832C96.3703 16.944 96.2343 17 96.0583 17H94.0663ZM108.995 17C108.851 17 108.723 16.944 108.611 16.832C108.499 16.72 108.443 16.592 108.443 16.448V5.096C108.443 4.936 108.499 4.8 108.611 4.688C108.723 4.576 108.859 4.52 109.019 4.52H111.011C111.187 4.52 111.323 4.576 111.419 4.688C111.531 4.8 111.587 4.936 111.587 5.096V14.576L110.747 13.976L117.347 4.904C117.427 4.792 117.515 4.704 117.611 4.64C117.707 4.56 117.835 4.52 117.995 4.52H119.819C119.963 4.52 120.091 4.576 120.203 4.688C120.315 4.784 120.371 4.904 120.371 5.048V16.424C120.371 16.584 120.315 16.72 120.203 16.832C120.091 16.944 119.955 17 119.795 17H117.803C117.627 17 117.483 16.944 117.371 16.832C117.275 16.72 117.227 16.584 117.227 16.424V7.376L118.115 7.496L111.467 16.616C111.403 16.712 111.315 16.8 111.203 16.88C111.107 16.96 110.979 17 110.819 17H108.995ZM131.317 17C131.141 17 130.997 16.944 130.885 16.832C130.789 16.72 130.741 16.584 130.741 16.424V12.752H128.365V12.632C126.749 12.632 125.533 12.264 124.717 11.528C123.917 10.776 123.517 9.792 123.517 8.576C123.517 7.232 123.941 6.224 124.789 5.552C125.637 4.864 126.861 4.52 128.461 4.52H133.357C133.517 4.52 133.653 4.576 133.765 4.688C133.877 4.8 133.932 4.936 133.932 5.096V16.424C133.932 16.584 133.877 16.72 133.765 16.832C133.653 16.944 133.517 17 133.357 17H131.317ZM123.637 17C123.493 17 123.373 16.952 123.277 16.856C123.181 16.76 123.133 16.648 123.133 16.52C123.133 16.472 123.141 16.416 123.157 16.352C123.173 16.272 123.213 16.2 123.277 16.136L125.965 11.912L128.893 12.296L126.229 16.64C126.181 16.736 126.101 16.824 125.989 16.904C125.877 16.968 125.757 17 125.629 17H123.637ZM128.389 10.472H130.789V6.8H128.533C127.797 6.8 127.253 6.936 126.901 7.208C126.549 7.464 126.373 7.92 126.373 8.576C126.373 9.136 126.533 9.592 126.853 9.944C127.189 10.296 127.701 10.472 128.389 10.472ZM137.706 17C137.546 17 137.418 16.952 137.322 16.856C137.226 16.76 137.178 16.64 137.178 16.496V4.976C137.178 4.848 137.226 4.744 137.322 4.664C137.434 4.568 137.546 4.52 137.658 4.52H139.674C139.946 4.52 140.154 4.656 140.298 4.928L143.994 11.648L147.69 4.928C147.834 4.656 148.042 4.52 148.314 4.52H150.306C150.45 4.52 150.57 4.568 150.666 4.664C150.762 4.744 150.81 4.848 150.81 4.976V16.496C150.81 16.64 150.762 16.76 150.666 16.856C150.57 16.952 150.442 17 150.282 17H148.218C148.058 17 147.93 16.952 147.834 16.856C147.754 16.76 147.714 16.64 147.714 16.496V7.784L148.698 7.952L145.146 14.504C145.066 14.648 144.97 14.784 144.858 14.912C144.746 15.024 144.586 15.08 144.378 15.08H143.586C143.394 15.08 143.242 15.024 143.13 14.912C143.018 14.8 142.922 14.664 142.842 14.504L139.362 8.216L140.274 8.072V16.496C140.274 16.64 140.226 16.76 140.13 16.856C140.034 16.952 139.914 17 139.77 17H137.706Z" fill="white"/>
<path d="M154.485 17C154.325 17 154.189 16.944 154.077 16.832C153.965 16.72 153.909 16.584 153.909 16.424V14.048C153.909 13.872 153.965 13.728 154.077 13.616C154.189 13.504 154.325 13.448 154.485 13.448H156.885C157.045 13.448 157.181 13.504 157.293 13.616C157.405 13.728 157.461 13.872 157.461 14.048V16.424C157.461 16.584 157.405 16.72 157.293 16.832C157.181 16.944 157.045 17 156.885 17H154.485ZM161.339 17C161.179 17 161.043 16.952 160.931 16.856C160.819 16.744 160.763 16.6 160.763 16.424V0.8C160.763 0.623999 160.819 0.479999 160.931 0.368C161.043 0.255999 161.179 0.199999 161.339 0.199999H163.523C163.699 0.199999 163.835 0.255999 163.931 0.368C164.043 0.479999 164.099 0.623999 164.099 0.8V6.992H171.179V0.8C171.179 0.623999 171.235 0.479999 171.347 0.368C171.459 0.255999 171.595 0.199999 171.755 0.199999H173.915C174.091 0.199999 174.235 0.255999 174.347 0.368C174.459 0.479999 174.515 0.623999 174.515 0.8V16.424C174.515 16.584 174.459 16.72 174.347 16.832C174.235 16.944 174.091 17 173.915 17H171.755C171.595 17 171.459 16.944 171.347 16.832C171.235 16.72 171.179 16.584 171.179 16.424V9.992H164.099V16.424C164.099 16.584 164.043 16.72 163.931 16.832C163.835 16.944 163.699 17 163.523 17H161.339ZM183.358 17.24C181.582 17.24 180.174 16.728 179.134 15.704C178.094 14.68 177.534 13.224 177.454 11.336C177.438 11.176 177.43 10.976 177.43 10.736C177.43 10.48 177.438 10.28 177.454 10.136C177.518 8.936 177.79 7.896 178.27 7.016C178.766 6.136 179.446 5.464 180.31 5C181.174 4.52 182.19 4.28 183.358 4.28C184.654 4.28 185.742 4.552 186.622 5.096C187.502 5.624 188.166 6.368 188.614 7.328C189.062 8.272 189.286 9.368 189.286 10.616V11.12C189.286 11.28 189.23 11.416 189.118 11.528C189.006 11.64 188.862 11.696 188.686 11.696H180.718C180.718 11.696 180.718 11.72 180.718 11.768C180.718 11.816 180.718 11.856 180.718 11.888C180.734 12.448 180.838 12.968 181.03 13.448C181.238 13.912 181.534 14.288 181.918 14.576C182.318 14.864 182.79 15.008 183.334 15.008C183.782 15.008 184.158 14.944 184.462 14.816C184.766 14.672 185.014 14.512 185.206 14.336C185.398 14.16 185.534 14.016 185.614 13.904C185.758 13.712 185.87 13.6 185.95 13.568C186.046 13.52 186.182 13.496 186.358 13.496H188.422C188.582 13.496 188.71 13.544 188.806 13.64C188.918 13.736 188.966 13.856 188.95 14C188.934 14.256 188.798 14.568 188.542 14.936C188.302 15.304 187.95 15.664 187.486 16.016C187.022 16.368 186.438 16.664 185.734 16.904C185.046 17.128 184.254 17.24 183.358 17.24ZM180.718 9.68H186.022V9.608C186.022 8.984 185.918 8.44 185.71 7.976C185.502 7.512 185.198 7.144 184.798 6.872C184.398 6.6 183.918 6.464 183.358 6.464C182.798 6.464 182.318 6.6 181.918 6.872C181.518 7.144 181.214 7.512 181.006 7.976C180.814 8.44 180.718 8.984 180.718 9.608V9.68ZM195.65 17C195.474 17 195.33 16.944 195.218 16.832C195.122 16.72 195.074 16.584 195.074 16.424V7.064H191.162C190.986 7.064 190.842 7.008 190.73 6.896C190.634 6.784 190.586 6.648 190.586 6.488V5.096C190.586 4.936 190.634 4.8 190.73 4.688C190.842 4.576 190.986 4.52 191.162 4.52H202.058C202.234 4.52 202.378 4.576 202.49 4.688C202.602 4.8 202.658 4.936 202.658 5.096V6.488C202.658 6.648 202.602 6.784 202.49 6.896C202.378 7.008 202.234 7.064 202.058 7.064H198.17V16.424C198.17 16.584 198.114 16.72 198.002 16.832C197.89 16.944 197.754 17 197.594 17H195.65Z" fill="#3C3B40"/>
</svg>
